<?xml version="1.0" standalone="no"?>
<!DOCTYPE svg PUBLIC "-//W3C//DTD SVG 20010904//EN"
 "http://www.w3.org/TR/2001/REC-SVG-20010904/DTD/svg10.dtd">
<svg version="1.0" xmlns="http://www.w3.org/2000/svg"
 width="700.000000pt" height="700.000000pt" viewBox="0 0 700.000000 700.000000"
 preserveAspectRatio="xMidYMid meet">
<metadata>
Created by potrace 1.11, written by Peter Selinger 2001-2013
</metadata>
<g transform="translate(0.000000,700.000000) scale(0.100000,-0.100000)"
fill="#000000" stroke="none">
<path d="M3260 6994 c-495 -45 -866 -142 -1273 -333 -214 -100 -480 -267 -682
-427 -141 -113 -426 -398 -539 -539 -160 -202 -327 -468 -427 -682 -165 -350
-266 -703 -316 -1093 -23 -187 -23 -623 0 -810 72 -567 255 -1062 563 -1525
137 -206 247 -339 438 -531 406 -405 837 -671 1384 -853 343 -114 677 -166
1077 -166 459 0 828 67 1235 222 475 181 860 432 1226 797 295 296 495 574
669 931 183 377 286 735 337 1170 16 142 16 578 0 720 -81 695 -323 1283 -753
1825 -108 136 -394 422 -534 534 -514 409 -1118 662 -1770 742 -123 15 -538
27 -635 18z m2020 -1914 c0 -13 -1788 -3590 -1795 -3590 -7 0 -1795 3577
-1795 3590 0 7 604 10 1795 10 1191 0 1795 -3 1795 -10z"/>
</g>
</svg>
