<svg xmlns="http://www.w3.org/2000/svg" fill-rule="evenodd" stroke-linejoin="round" stroke-miterlimit="1.41421" clip-rule="evenodd" viewBox="0 0 108 42"> <g fill="#FFFFFF"> <g fill-rule="nonzero"> <g filter="url(#f1)"> <path d="M29.8 38.971l-.022-4.387.388-.062c1.356-.215 2.064.214 2.275 1.549.252 1.593-.474 2.579-2.132 2.842-.161.025-.335.042-.509.058zm-2.064 2.082l1.776-.282c1.711-.271 2.988-.495 3.907-1.38.976-.949 1.329-2.13 1.095-3.605-.243-1.539-1.047-2.57-2.267-2.962-.743-.235-1.78-.093-3.201.132l-1.324.21.014 7.887zM37.334 37.778l.002-1.313 2.217-.351-.006-1.71-2.206.35-.006-1.29 2.379-.377-.001-1.82-4.435.702.003 7.889 4.434-.703-.002-1.754-2.379.377zM43.256 38.594l4.607-.729-.001-1.887-2.54.403-.002-6.002-2.066.327.002 7.888z"/> <path d="M50.591 34.189l.538-1.895c.035-.127.106-.447.201-.958.057.288.146.572.246.854l.64 1.742-1.625.257zm-3.245 3.758l2.239-.355.502-1.569 2.691-.426.542 1.404 2.088-.331-2.855-7.437-2.572.408-2.635 8.306z"/> </g> <g filter="url(#f1)"> <path d="M60.039 38.442l-.037-7.465.659-.104c2.307-.366 3.511.363 3.871 2.634.429 2.71-.806 4.388-3.626 4.835-.275.043-.571.072-.867.1zm-3.512 3.54l3.021-.478c2.912-.461 5.085-.843 6.648-2.348 1.659-1.614 2.261-3.624 1.863-6.133-.414-2.618-1.781-4.373-3.857-5.039-1.265-.4-3.029-.158-5.446.225l-2.252.356.023 13.417zM72.857 36.412l.003-2.234 3.772-.598-.01-2.908-3.754.595-.01-2.195 4.047-.641-.003-3.096-7.544 1.195.005 13.419 7.544-1.194-.004-2.984-4.046.641zM77.566 38.65l3.406-.539.824-6.531c.069-.631.105-1.35.111-2.139.208.718.422 1.36.622 1.91l2.233 6.159 2.124-.336 1.975-6.845c.157-.55.388-1.225.499-2.068.067.777.159 1.476.254 2.08l1.026 6.238 3.222-.51-2.384-13.043-3.864.612-1.529 5.517c-.188.705-.359 1.408-.419 2.093-.186-.702-.388-1.384-.599-2.007l-1.683-4.933-3.882.615-1.936 13.727zM101.443 35.225c2.381-.377 4.234-1.59 5.399-3.483.972-1.562 1.319-3.4 1.012-5.341-.568-3.589-3.587-5.701-7.56-5.071-2.363.374-4.287 1.617-5.42 3.467-.97 1.58-1.302 3.397-.994 5.338.29 1.831 1.307 3.397 2.724 4.28 1.352.837 2.953 1.109 4.839.81zm-.862-10.656c1.813-.287 3.377.816 3.678 2.721.363 2.289-1.016 4.365-3.122 4.699-1.922.304-3.374-.799-3.693-2.813-.356-2.252.977-4.265 3.137-4.607z"/> </g> <g filter="url(#f1)"> <path d="M18.153 21.99l.006-5.337.775-.123c2.215-.351 3.4.143 3.676 1.887.286 1.8-.692 2.976-2.796 3.309l-1.661.264zm.012 11.009l-.006-7.747 5.018 6.954 6.035-.956-6.054-7.045c3.397-1.134 5.041-3.835 4.528-7.074-.378-2.381-1.701-3.931-3.844-4.557-1.577-.46-3.385-.23-5.683.134l-5.261.833.007 20.291 5.26-.833zM29.455 10.919l-.019 8.659c.005 2.724.086 4.669.27 5.832.592 3.738 4.056 5.715 8.79 4.965 3.683-.583 6.2-2.429 7.264-5.209.645-1.663.645-3.451.647-5.409l-.008-11.522-5.316.842.005 7.378c.004 5.761.046 8.536-3.055 9.027-1.716.272-2.871-.567-3.138-2.256-.127-.803-.138-1.766-.128-2.96l.003-10.189-5.315.842zM48.87 28.136l11.849-1.877-.002-4.852-6.534 1.035-.004-15.439-5.316.842.007 20.291zM66.805 20.783l.005-3.378 5.703-.903-.015-4.397-5.676.899-.015-3.318 6.119-.969-.004-4.683-11.406 1.807.006 20.291 11.407-1.806-.005-4.512-6.119.969zM77.83 23.549l5.315-.841.002-15.582 4.236-.671.019-4.714-13.981 2.214-.02 4.715 4.43-.702-.001 15.581zM93.346 12.748l1.385-4.874c.09-.326.272-1.15.518-2.466.146.743.375 1.473.632 2.199l1.646 4.479-4.181.662zM85 22.414l5.759-.912 1.291-4.036 6.922-1.097 1.394 3.611 5.372-.851L98.394 0l-6.617 1.048L85 22.414z"/> </g> <g filter="url(#f1)"> <path d="M.003 23.633l4.635-.734-.001-1.898-2.556.404-.002-6.038L0 15.696l.003 7.937z"/> <path d="M7.382 19.2l.542-1.906c.035-.128.106-.45.202-.965.058.291.147.577.248.861l.643 1.751-1.635.259zm-3.264 3.781l2.252-.357.505-1.578 2.708-.429.545 1.412 2.101-.333-2.872-7.482-2.589.41-2.65 8.357z"/> </g> </g> <path filter="url(#f1)" d="M57.857 9.876l-5.663-7.921L60.796.593l-2.939 9.283z"/> </g> <defs> <filter id="f1" filterUnits="objectBoundingBox" x="-30%" y="-30%" width="160%" height="160%"> <feDropShadow dx="0" dy="0" stdDeviation="1.2" flood-color="#000000" flood-opacity=".6"/> </filter> </defs></svg>